{"glyphs":{"0":{"ha":667,"x_min":14,"x_max":600,"o":"m 17 192 q 62 81 17 127 q 177 12 107 35 q 317 -11 247 -11 q 358 -8 331 -11 q 475 21 421 -2 q 563 84 530 44 q 597 180 597 124 l 600 890 q 575 984 600 943 q 506 1053 550 1025 q 409 1096 462 1082 q 300 1110 355 1110 q 158 1078 225 1108 q 53 993 92 1047 q 14 869 14 939 l 17 192 m 262 849 q 295 970 262 917 q 386 1026 328 1024 q 489 973 451 1026 q 528 849 528 919 l 528 222 q 497 119 528 165 q 419 70 467 73 q 304 112 351 70 q 257 215 257 155 l 262 849 z "},"1":{"ha":458,"x_min":-3,"x_max":382,"o":"m 1 906 q 31 897 7 897 l 100 912 q 143 908 136 912 q 154 861 154 899 l 157 150 l 158 110 q 191 31 158 63 q 270 -1 223 -1 q 347 31 316 -1 q 379 110 379 63 l 380 821 l 382 1018 q 378 1071 382 1055 q 361 1095 375 1087 q 340 1100 352 1100 q 321 1096 331 1100 q 295 1083 312 1093 q 275 1072 278 1074 l 11 946 q -3 920 -3 936 q 1 906 -3 912 z "},"2":{"ha":631,"x_min":4,"x_max":600,"o":"m 111 654 q 196 686 160 654 q 232 765 232 719 l 231 924 q 271 999 231 970 q 362 1029 311 1029 q 406 1022 382 1029 q 468 973 446 1009 q 490 892 490 937 q 474 824 490 854 l 78 113 l 72 104 q 58 83 68 97 q 44 59 49 69 q 39 40 39 50 q 44 21 39 30 q 114 0 58 0 l 498 1 q 571 36 543 1 q 600 119 600 71 q 572 198 600 165 q 502 232 544 232 l 301 232 q 253 264 269 232 q 246 290 246 280 q 257 327 246 307 l 508 782 q 536 837 529 822 q 546 878 543 853 q 507 997 546 946 q 406 1076 468 1049 q 278 1104 343 1103 q 147 1081 210 1104 q 44 1013 83 1058 q 4 904 4 967 l 11 736 q 41 677 12 697 q 111 654 70 656 z "},"3":{"ha":631,"x_min":3,"x_max":571,"o":"m 192 278 q 144 286 167 286 q 44 250 98 286 q 10 186 10 227 q 47 97 10 144 q 144 20 84 51 q 265 -11 204 -11 q 308 -7 288 -11 q 497 60 426 17 q 569 188 569 102 l 565 458 q 557 494 565 479 q 528 528 548 508 q 503 555 509 548 q 454 593 486 575 q 401 623 422 610 q 370 657 379 636 q 367 672 367 667 q 382 720 367 685 l 543 1007 q 555 1027 547 1014 q 567 1049 563 1040 q 571 1067 571 1058 q 565 1085 571 1075 q 544 1101 559 1097 q 494 1104 529 1104 l 114 1104 q 57 1087 83 1104 q 17 1042 32 1070 q 3 982 3 1014 q 34 901 4 935 q 108 867 63 867 l 267 867 q 329 842 313 867 q 343 803 343 809 q 339 783 343 793 l 207 546 q 199 532 205 543 q 190 514 192 520 q 188 498 188 507 q 199 471 188 480 q 233 449 210 461 q 267 429 256 438 q 330 388 292 408 q 414 343 368 369 q 484 288 461 317 q 507 214 507 258 q 394 78 486 78 q 290 114 353 78 q 253 167 265 129 q 231 236 242 205 q 192 278 221 268 z "},"4":{"ha":632,"x_min":10,"x_max":624,"o":"m 29 343 q 20 324 25 334 q 13 307 15 314 q 10 292 10 299 q 18 270 10 280 q 70 256 31 256 l 194 256 q 256 240 239 256 q 271 186 271 224 l 271 86 q 307 22 271 46 q 389 -1 343 -1 q 470 22 435 -1 q 506 85 506 45 l 506 208 q 526 244 506 234 q 554 249 536 249 l 600 251 q 617 259 610 251 q 624 278 624 267 q 617 300 624 290 q 600 310 611 310 l 549 313 q 519 331 534 313 q 498 379 498 354 l 498 1058 q 468 1110 498 1108 q 425 1072 444 1110 l 40 361 l 29 343 m 132 342 q 126 364 126 353 q 144 425 126 389 q 184 489 161 460 q 219 522 207 518 q 256 509 242 522 q 270 478 270 496 l 272 380 q 244 335 272 354 q 183 317 216 317 q 132 342 146 317 z "},"5":{"ha":636,"x_min":5,"x_max":597,"o":"m 494 551 q 438 600 469 577 q 377 642 407 623 q 294 692 347 661 q 219 736 240 724 q 210 741 217 738 q 199 749 203 744 q 186 769 186 761 l 186 822 q 217 858 186 839 q 262 872 238 872 l 493 875 q 568 913 539 875 q 597 1001 597 951 q 559 1081 595 1050 q 472 1113 522 1113 l 327 1113 q 270 1095 291 1113 q 233 1038 257 1084 l 29 672 q 8 621 8 634 q 13 603 8 611 q 34 584 17 592 q 57 569 52 575 q 206 475 102 535 q 359 384 309 415 q 452 308 410 353 q 494 214 494 262 q 464 133 494 174 q 368 74 420 74 q 300 99 333 74 q 242 164 267 125 q 205 240 217 203 q 174 284 198 267 q 118 301 149 301 q 60 282 87 301 q 5 192 5 242 q 48 101 5 146 q 155 27 91 56 q 275 -1 219 -1 q 303 0 294 -1 q 477 71 407 16 q 547 215 547 126 l 546 413 q 494 551 546 502 z "},"6":{"ha":685,"x_min":1,"x_max":664,"o":"m 50 349 q 33 319 43 336 q 17 290 23 301 q 7 263 12 278 q 1 231 3 249 q 40 107 1 161 q 141 24 79 53 q 271 -5 203 -5 q 300 -4 290 -5 q 419 17 367 3 q 510 62 471 31 q 553 146 549 94 q 529 251 553 212 l 392 479 l 650 943 q 664 996 664 970 q 617 1087 664 1056 q 555 1107 591 1107 q 495 1091 524 1107 q 451 1047 467 1075 l 50 349 m 165 415 q 174 432 169 423 q 183 445 178 440 q 197 450 189 450 q 216 442 210 450 q 231 414 221 434 l 319 244 q 329 204 329 227 q 310 143 329 173 q 261 94 292 113 q 197 75 231 75 q 132 94 164 75 q 80 143 100 112 q 60 203 60 173 q 70 242 60 224 l 165 415 z "},"7":{"ha":667,"x_min":3,"x_max":636,"o":"m 149 863 l 361 861 q 418 838 401 861 q 425 815 425 829 q 421 796 425 806 q 407 770 417 786 q 394 749 397 754 l 8 42 q 3 21 3 31 q 14 -3 3 4 q 29 -7 20 -7 q 60 11 52 -4 l 454 722 l 611 1001 q 620 1018 611 1002 q 633 1043 629 1033 q 636 1060 636 1052 q 632 1078 636 1069 q 585 1100 620 1100 q 567 1099 579 1100 q 549 1099 555 1099 l 140 1097 q 62 1065 95 1097 q 28 987 30 1033 q 63 899 28 936 q 149 863 98 863 z "},"8":{"ha":647,"x_min":-7,"x_max":597,"o":"m 425 504 l 426 553 l 579 832 q 597 901 597 866 q 553 1012 597 959 q 435 1096 509 1064 q 278 1128 361 1128 q 152 1099 220 1125 q 38 1030 84 1072 q -7 940 -7 987 q 7 892 -7 916 l 170 610 l 170 554 l 72 392 q 15 282 31 320 q -1 211 -1 245 q 19 119 -1 173 q 217 -4 55 21 q 292 -10 258 -10 q 499 28 406 -10 q 592 150 592 66 q 569 236 592 191 l 425 504 m 204 60 q 103 103 137 68 q 68 186 68 138 q 85 253 68 222 l 171 426 q 214 450 180 450 q 249 417 234 448 l 340 242 q 350 199 350 222 q 307 103 350 146 q 204 60 265 60 m 411 676 q 376 647 397 647 q 362 653 367 647 q 354 666 357 658 q 346 686 351 674 l 254 863 q 244 901 244 880 q 265 964 244 933 q 318 1015 286 996 q 385 1035 351 1035 q 451 1014 419 1035 q 503 959 483 992 q 522 893 522 926 q 510 844 522 867 l 411 676 z "},"9":{"ha":611,"x_min":-11,"x_max":572,"o":"m 71 -14 l 489 697 l 551 801 q 572 877 572 837 q 530 990 572 935 q 415 1080 487 1045 q 261 1114 343 1114 q 139 1084 203 1111 q 32 1014 75 1057 q -11 924 -11 971 q 1 875 -11 897 l 227 468 q 244 417 244 434 q 231 374 244 402 l 68 97 q 18 -10 18 9 q 24 -20 18 -17 q 31 -26 30 -24 q 40 -31 32 -31 q 58 -26 49 -31 q 71 -14 68 -21 m 394 663 q 385 645 390 654 q 374 630 380 635 q 360 625 368 625 q 343 632 348 625 q 329 660 338 640 l 235 839 q 225 882 225 858 q 246 948 225 915 q 300 1001 266 980 q 368 1021 333 1021 q 434 1000 402 1021 q 486 945 467 979 q 506 879 506 912 q 493 830 506 853 l 394 663 z "},"`":{"ha":1042,"x_min":174,"x_max":868,"o":"m 174 0 l 174 868 l 868 868 l 868 0 l 174 0 m 846 22 l 846 846 l 196 846 l 196 22 l 846 22 z "}," ":{"ha":517,"x_min":0,"x_max":0,"o":""},"!":{"ha":274,"x_min":4,"x_max":244,"o":"m 4 960 l 81 431 q 95 355 88 377 q 129 333 102 333 q 154 349 147 335 q 162 395 160 363 q 164 431 163 426 l 240 960 q 208 1074 240 1028 q 122 1119 175 1119 q 37 1074 70 1119 q 4 960 4 1028 m 129 222 q 50 189 78 221 q 21 113 21 156 q 51 33 21 66 q 136 0 81 0 q 216 34 188 1 q 244 110 244 66 q 214 189 244 156 q 129 222 184 222 z "},"\"":{"ha":267,"x_min":-1,"x_max":244,"o":"m -1 1050 l 32 824 q 53 782 35 782 q 62 789 59 782 q 66 808 65 795 q 67 824 67 821 l 100 1050 q 86 1100 100 1080 q 48 1119 73 1119 q 12 1100 26 1119 q -1 1050 -1 1080 m 143 1050 l 176 824 q 178 810 177 820 q 182 795 180 801 q 188 786 183 789 q 197 782 192 782 q 207 788 204 782 q 211 809 210 794 q 213 824 213 823 l 244 1050 q 231 1100 244 1080 q 194 1119 217 1119 q 157 1099 171 1119 q 143 1050 143 1080 z "},"#":{"ha":757,"x_min":0,"x_max":722,"o":"m 108 482 l 58 249 l 158 249 l 208 482 l 432 482 l 383 249 l 483 249 l 532 482 l 722 482 l 722 581 l 553 581 l 593 778 l 722 778 l 722 878 l 615 878 l 664 1113 l 564 1113 l 515 878 l 290 878 l 339 1113 l 240 1113 l 190 878 l 0 878 l 0 778 l 170 778 l 129 581 l 0 581 l 0 482 l 108 482 m 270 778 l 494 778 l 454 581 l 229 581 l 270 778 z "},"$":{"ha":617,"x_min":10,"x_max":588,"o":"m 149 421 q 125 424 140 424 q 47 386 82 424 q 13 303 13 349 l 13 180 q 38 106 13 135 q 117 39 63 77 q 156 20 136 24 q 211 12 176 16 q 264 0 247 8 q 278 -16 274 -5 q 285 -44 282 -26 q 292 -70 288 -62 q 308 -78 297 -78 q 324 -70 320 -78 q 331 -43 329 -62 q 337 -15 334 -24 q 350 0 340 -5 q 410 18 368 10 q 475 39 453 26 q 560 103 532 73 q 588 180 588 133 l 586 411 q 519 560 586 505 q 321 673 452 615 q 128 778 190 732 q 65 906 65 825 q 82 955 65 925 q 134 1008 99 985 q 217 1030 168 1030 q 297 995 261 1029 q 336 912 334 961 l 342 815 q 353 758 344 782 q 391 716 363 734 q 471 692 419 697 q 548 726 512 692 q 583 803 583 760 l 585 922 q 578 961 585 944 q 562 993 572 979 q 543 1015 552 1006 q 506 1054 534 1025 q 458 1081 486 1075 q 397 1095 431 1088 q 342 1118 362 1101 q 322 1147 332 1125 q 307 1178 313 1170 q 286 1187 301 1187 q 269 1174 272 1186 q 261 1141 265 1161 q 247 1113 256 1120 q 231 1103 236 1103 l 222 1103 q 146 1085 200 1103 q 46 1010 80 1063 q 11 883 11 957 l 10 699 q 76 557 10 612 q 271 438 141 501 q 462 333 401 376 q 522 222 522 290 q 494 132 522 181 q 396 86 469 86 q 303 112 345 86 q 258 178 260 137 l 250 308 q 227 379 248 355 q 149 421 207 404 z "},"%":{"ha":983,"x_min":7,"x_max":950,"o":"m 542 128 q 570 55 542 84 q 643 11 598 25 q 738 -3 689 -3 q 769 -1 760 -3 q 897 37 845 6 q 950 126 950 68 l 950 403 q 887 500 950 467 q 730 533 823 533 q 597 496 653 529 q 542 403 542 464 l 542 128 m 7 707 q 72 595 7 634 q 236 555 138 555 q 364 594 311 562 q 417 686 417 627 l 417 963 q 354 1072 417 1032 q 203 1111 291 1111 q 109 1091 154 1109 q 37 1040 65 1073 q 10 963 10 1007 l 7 707 m 873 1126 q 869 1150 873 1147 q 854 1156 862 1156 q 842 1148 846 1156 l 388 437 l 92 -24 q 96 -48 92 -46 q 122 -43 118 -48 l 578 667 l 873 1126 m 182 967 q 212 1033 182 1007 q 285 1060 243 1060 q 352 1027 326 1059 q 379 953 379 996 l 382 708 q 355 642 382 670 q 288 611 327 615 q 214 628 245 611 q 182 678 182 644 l 182 967 m 717 407 q 744 461 717 440 q 808 483 772 483 q 872 461 845 483 q 900 407 900 440 l 900 126 q 877 77 900 96 q 821 53 854 57 q 746 70 775 53 q 717 119 717 87 l 717 407 z "},"&":{"ha":1118,"x_min":-4,"x_max":983,"o":"m 165 547 l 89 400 q 44 316 61 349 q 18 260 27 283 q 10 210 10 236 q 25 131 10 180 q 233 4 56 32 q 315 -3 282 -3 q 497 52 410 -3 q 580 14 541 24 q 683 -1 619 3 q 711 -3 693 -3 q 845 23 782 -3 q 946 97 908 48 q 983 213 983 146 q 965 298 980 265 q 921 378 951 330 l 885 433 q 857 450 876 448 q 844 446 851 450 q 835 425 835 440 q 839 406 835 414 l 875 349 q 920 208 920 280 q 847 92 920 123 q 790 81 823 81 q 715 100 751 81 q 657 153 680 118 l 624 205 l 882 657 q 897 718 897 687 q 879 785 897 754 q 829 828 861 815 q 783 836 811 836 q 721 820 750 836 q 678 777 693 805 l 525 497 q 509 472 515 479 q 492 465 504 465 q 458 488 471 465 l 431 537 q 428 551 428 542 q 431 575 428 558 q 442 606 432 587 l 565 849 q 579 907 579 876 q 540 1005 579 958 q 437 1082 500 1051 q 308 1117 374 1112 q 165 1092 238 1117 q 44 1025 91 1067 q -4 935 -4 982 q 10 886 -4 909 l 175 612 l 165 547 m 201 71 q 101 114 134 79 q 68 196 68 149 q 85 264 68 231 l 176 443 q 214 461 185 461 q 237 442 230 459 l 346 247 q 357 205 357 227 q 336 142 357 173 q 278 91 315 111 q 201 71 242 71 m 410 681 q 395 654 400 662 q 379 647 390 647 q 346 678 361 647 l 240 857 q 229 899 229 877 q 249 961 229 929 q 302 1013 270 992 q 368 1035 334 1034 q 438 1013 405 1035 q 493 955 472 990 q 514 885 514 920 q 502 836 514 860 l 410 681 z "},"'":{"ha":339,"x_min":-1,"x_max":303,"o":"m 296 953 q 239 1067 278 1022 q 136 1113 199 1113 q 39 1071 79 1108 q -1 975 -1 1034 q 53 875 9 897 q 154 853 98 853 q 192 807 182 853 q 178 771 192 785 q 139 742 165 757 q 103 719 114 727 q 93 697 93 711 q 96 685 93 694 q 131 660 106 660 q 196 690 159 660 q 257 758 234 721 q 303 897 303 835 q 296 953 303 922 z "},"’":{"ha":339,"x_min":-1,"x_max":303,"o":"m 296 953 q 239 1067 278 1022 q 136 1113 199 1113 q 39 1071 79 1108 q -1 975 -1 1034 q 53 875 9 897 q 154 853 98 853 q 192 807 182 853 q 178 771 192 785 q 139 742 165 757 q 103 719 114 727 q 93 697 93 711 q 96 685 93 694 q 131 660 106 660 q 196 690 159 660 q 257 758 234 721 q 303 897 303 835 q 296 953 303 922 z "},"(":{"ha":254,"x_min":8,"x_max":244,"o":"m 139 895 q 237 1072 174 981 q 244 1093 244 1079 q 233 1118 244 1111 q 214 1124 222 1124 q 189 1111 197 1124 q 78 906 121 1016 q 39 794 54 845 q 16 693 23 744 q 8 586 8 643 l 8 555 q 25 376 12 451 q 72 210 38 300 q 120 105 96 148 q 183 4 143 61 q 208 -8 192 -8 q 228 -3 216 -8 q 239 22 239 5 q 232 43 239 36 q 175 131 196 94 q 133 221 155 168 q 83 385 96 313 q 70 560 70 456 q 85 729 70 657 q 139 895 100 801 z "},")":{"ha":271,"x_min":7,"x_max":243,"o":"m 182 560 q 176 439 182 493 q 157 333 171 385 q 118 221 143 282 q 19 43 80 127 q 13 22 13 36 q 24 -3 13 4 q 43 -8 35 -8 q 68 4 59 -8 q 132 105 109 62 q 179 210 156 148 q 227 375 213 300 q 243 555 240 451 l 243 586 q 227 741 243 671 q 174 906 211 811 q 126 1012 149 969 q 62 1111 102 1055 q 38 1124 54 1124 q 18 1118 30 1124 q 7 1093 7 1111 q 14 1072 7 1079 q 113 895 78 980 q 167 729 151 801 q 182 560 182 657 z "},"*":{"ha":328,"x_min":14,"x_max":301,"o":"m 200 822 q 225 814 219 815 q 240 817 229 814 q 260 861 260 826 l 239 921 l 280 943 q 301 979 301 954 q 292 1006 301 995 q 268 1018 282 1018 l 210 1018 l 196 1074 q 160 1097 191 1097 q 115 1072 119 1097 l 105 1019 l 48 1019 q 24 1008 34 1019 q 14 981 14 996 q 35 944 14 955 l 76 922 l 56 863 q 75 818 56 827 q 115 824 107 818 l 160 854 l 200 822 z "},"+":{"ha":635,"x_min":0,"x_max":606,"o":"m 0 436 l 0 336 l 253 336 l 253 83 l 353 83 l 353 336 l 606 336 l 606 436 l 353 436 l 353 689 l 253 689 l 253 436 l 0 436 z "},",":{"ha":372,"x_min":-1,"x_max":303,"o":"m 136 285 q 38 243 78 280 q -1 147 -1 206 q 53 47 9 69 q 154 25 98 25 q 192 -21 182 25 q 178 -57 192 -42 q 139 -86 165 -71 q 103 -109 114 -101 q 93 -131 93 -117 q 96 -142 93 -133 q 131 -167 105 -167 q 197 -137 159 -167 q 257 -70 234 -107 q 303 70 303 7 q 296 125 303 93 q 239 239 279 194 q 136 285 199 285 z "},"-":{"ha":608,"x_min":4,"x_max":547,"o":"m 39 497 l 517 498 q 538 509 530 498 q 547 535 547 520 q 536 556 546 547 q 514 565 527 565 l 38 569 q 14 557 23 569 q 4 526 4 545 q 16 506 6 514 q 39 497 26 497 z "},".":{"ha":310,"x_min":-5,"x_max":231,"o":"m 105 227 q 23 190 52 223 q -5 110 -5 156 q 27 26 -5 61 q 119 -10 60 -10 q 202 27 173 -6 q 231 107 231 61 q 198 191 231 156 q 105 227 165 227 z "},"/":{"ha":512,"x_min":8,"x_max":492,"o":"m 21 61 q 8 17 8 30 q 22 -8 8 0 q 36 -13 28 -13 q 64 1 51 -13 q 85 32 78 15 l 367 743 l 488 1043 q 492 1065 492 1054 q 478 1093 492 1085 q 464 1097 472 1097 q 440 1089 451 1097 q 425 1069 430 1081 l 140 358 l 21 61 z "},":":{"ha":286,"x_min":-3,"x_max":233,"o":"m 108 892 q 26 855 55 889 q -3 775 -3 821 q 30 690 -3 726 q 122 654 63 654 q 204 691 176 657 q 233 771 233 724 q 201 856 233 820 q 108 892 168 892 m 108 293 q 26 256 55 290 q -3 176 -3 222 q 30 92 -3 127 q 122 57 63 57 q 204 94 176 60 q 233 174 233 127 q 201 258 233 222 q 108 293 168 293 z "},";":{"ha":368,"x_min":-5,"x_max":299,"o":"m 111 906 q 50 887 75 904 q 13 844 25 870 q 0 789 0 818 q 33 704 0 740 q 125 668 65 668 q 207 704 178 671 q 236 785 236 738 q 222 843 236 815 q 180 888 208 871 q 111 906 151 906 m 132 321 q 35 279 75 316 q -5 183 -5 242 q 49 83 5 104 q 150 61 93 61 q 188 15 178 61 q 174 -21 188 -6 q 135 -50 161 -35 q 99 -73 110 -64 q 89 -95 89 -81 q 92 -105 89 -97 q 126 -131 101 -131 q 193 -100 155 -131 q 253 -33 231 -69 q 299 105 299 43 q 292 161 299 127 q 235 275 275 230 q 132 321 195 321 z "},"<":{"ha":479,"x_min":-5,"x_max":446,"o":"m 251 413 l 417 586 q 443 674 443 613 q 431 744 443 712 q 376 793 412 793 q 345 778 360 793 l 17 457 q -5 406 -5 435 q 17 358 -5 380 l 349 29 q 374 18 360 18 q 423 55 400 18 q 446 138 446 92 q 432 214 446 181 q 396 257 418 247 q 376 261 386 261 q 351 252 363 261 q 325 224 339 242 q 301 199 310 207 q 279 190 291 190 q 217 247 253 190 q 208 286 208 262 q 221 356 208 318 q 251 413 234 393 z "},"=":{"ha":488,"x_min":4,"x_max":464,"o":"m 33 439 l 437 440 q 456 451 448 440 q 464 476 464 462 q 454 498 463 489 q 435 507 446 507 l 32 511 q 12 499 20 511 q 4 468 4 488 q 14 447 5 455 q 33 439 22 439 m 33 282 l 437 283 q 456 294 449 283 q 464 319 464 305 q 454 341 463 332 q 435 350 446 350 l 32 354 q 12 342 20 354 q 4 311 4 331 q 14 290 5 298 q 33 282 22 282 z "},">":{"ha":480,"x_min":-1,"x_max":451,"o":"m 193 413 q 223 356 211 394 q 236 286 236 319 q 228 247 236 262 q 167 190 193 190 q 146 198 155 190 q 121 224 137 206 q 94 252 106 242 q 67 261 82 261 q 48 257 59 261 q 12 213 26 247 q -1 138 -1 180 q 22 54 -1 91 q 72 18 44 18 q 96 28 86 18 l 428 357 q 451 406 451 378 q 428 455 451 435 l 101 777 q 68 792 83 792 q 14 743 33 792 q 1 672 1 712 q 28 585 1 611 l 193 413 z "},"?":{"ha":633,"x_min":-5,"x_max":576,"o":"m 140 222 q 50 188 82 222 q 18 105 18 154 q 46 29 18 62 q 126 -7 75 -4 q 217 27 185 -7 q 249 110 249 62 q 237 163 249 138 q 200 204 224 188 q 140 222 175 220 m 571 682 l 576 921 q 497 1059 576 1011 q 307 1113 417 1107 q 151 1091 222 1113 q 37 1025 80 1069 q -5 915 -5 980 l -5 807 q 31 723 -5 758 q 118 689 67 689 q 177 706 150 689 q 220 749 204 722 q 236 808 236 776 l 235 925 q 274 995 235 970 q 367 1025 313 1021 q 503 967 462 1025 q 521 907 521 939 q 494 824 521 864 q 425 758 468 784 l 81 551 q 31 499 50 532 q 13 431 13 465 q 38 362 13 387 q 114 331 67 331 q 192 353 152 331 l 492 528 q 551 582 535 553 q 571 682 571 614 z "},"@":{"ha":1103,"x_min":14,"x_max":1065,"o":"m 807 835 l 690 825 l 672 758 l 669 758 q 640 821 664 798 q 578 844 617 844 q 436 781 514 844 q 305 616 359 717 q 251 411 251 515 q 281 315 251 354 q 356 276 312 276 q 465 322 411 276 q 582 455 520 367 l 583 453 q 571 365 571 421 q 597 300 571 324 q 672 276 624 276 q 856 340 778 276 q 976 502 935 403 q 1017 701 1017 600 q 990 859 1017 784 q 908 990 963 933 q 772 1080 854 1048 q 582 1113 690 1113 q 294 1035 425 1113 q 89 824 164 958 q 14 531 14 691 q 82 258 14 380 q 270 68 149 137 q 540 0 390 0 q 725 30 639 0 q 880 112 811 60 q 996 230 949 164 q 1065 367 1043 295 l 1029 367 q 907 182 984 257 q 740 72 835 110 q 542 35 646 35 q 354 70 440 35 q 205 167 267 105 q 107 319 142 230 q 72 511 72 409 q 92 665 72 590 q 149 807 111 740 q 239 928 186 875 q 593 1079 391 1079 q 752 1051 678 1079 q 877 972 825 1023 q 982 704 982 867 q 967 586 982 645 q 925 478 953 528 q 860 389 898 427 q 789 339 828 357 q 724 321 751 321 q 692 335 706 321 q 678 367 678 348 q 692 446 678 396 l 807 835 m 646 726 q 610 564 646 654 q 510 410 573 473 q 422 364 464 364 q 385 385 401 364 q 370 436 370 407 q 404 586 370 495 q 489 744 439 677 q 583 811 539 811 q 629 788 612 811 q 646 726 646 765 z "},"A":{"ha":889,"x_min":-1,"x_max":800,"o":"m 3 50 q -1 26 -1 40 q 17 -4 -1 3 q 29 -7 21 -7 q 55 3 43 -7 q 72 28 68 13 l 131 201 q 165 233 136 220 q 215 239 182 239 l 440 242 q 493 235 483 242 q 502 225 498 231 q 509 209 506 219 q 515 193 513 199 l 581 61 q 622 16 595 33 q 682 0 650 0 q 736 11 708 0 q 783 55 766 26 q 800 118 800 84 q 792 165 800 142 l 526 877 l 460 1053 q 437 1108 449 1089 q 400 1126 426 1126 q 379 1120 388 1126 q 365 1102 370 1113 q 355 1073 359 1090 q 347 1047 350 1055 l 103 336 l 3 50 m 262 572 q 286 622 274 605 q 322 639 297 639 q 341 629 334 637 q 354 603 348 621 q 361 583 360 584 l 449 385 q 454 356 454 372 q 449 331 454 341 q 399 306 436 306 l 229 307 q 194 339 209 307 q 189 365 189 350 q 196 401 189 384 l 262 572 z "},"B":{"ha":668,"x_min":3,"x_max":589,"o":"m 555 600 q 579 657 574 641 q 585 699 585 673 l 583 893 q 539 1013 583 964 q 422 1085 495 1061 q 265 1108 349 1108 q 116 1073 175 1104 q 30 988 57 1042 q 3 864 3 935 l 3 186 q 45 73 3 120 q 158 3 88 26 q 311 -21 229 -21 q 447 10 384 -17 q 550 85 510 36 q 589 197 589 133 l 588 399 q 563 490 588 431 q 544 511 557 500 q 524 529 530 522 q 518 549 518 536 q 535 578 518 563 q 555 600 551 592 m 257 497 q 301 512 269 512 l 426 510 q 480 469 452 510 q 524 393 524 433 l 526 211 q 487 114 526 154 q 392 72 447 73 q 293 102 334 72 q 251 180 251 131 l 249 442 q 257 497 249 483 m 251 639 l 251 890 q 286 982 251 945 q 376 1021 321 1018 q 476 991 434 1021 q 518 912 518 961 l 521 715 q 496 639 521 673 q 410 582 455 582 l 282 579 q 258 594 269 579 q 251 639 251 606 z "},"C":{"ha":686,"x_min":-7,"x_max":578,"o":"m -7 244 q 33 114 -7 173 q 137 21 72 55 q 278 -17 202 -13 q 425 4 357 -17 q 534 67 493 25 q 575 172 575 110 l 578 370 q 541 458 578 421 q 450 496 504 496 q 373 448 401 493 q 340 343 345 404 l 329 170 q 291 103 327 127 q 205 78 255 78 q 113 115 152 78 q 75 205 75 153 l 75 883 q 111 978 75 939 q 200 1018 148 1018 q 290 987 253 1018 q 329 908 328 957 l 335 715 q 373 633 336 667 q 458 598 410 598 q 536 633 505 601 q 567 708 567 664 l 561 918 q 535 1002 560 966 q 469 1062 511 1039 q 378 1096 428 1085 q 275 1107 329 1107 q 140 1082 204 1106 q 35 1012 76 1058 q -5 901 -5 965 l -7 244 z "},"D":{"ha":706,"x_min":4,"x_max":596,"o":"m 5 3 l 474 3 q 565 33 533 3 q 591 75 586 52 q 596 139 596 98 l 593 850 l 592 901 q 549 1013 592 966 q 437 1083 506 1059 q 293 1107 368 1107 q 140 1076 203 1107 q 4 889 4 1013 l 4 178 l 5 3 m 79 889 q 114 977 79 941 q 201 1018 149 1013 q 277 1001 243 1018 q 331 955 312 984 q 351 889 351 925 l 349 199 q 311 103 349 138 q 232 70 275 70 l 131 70 q 99 81 112 70 q 83 135 83 93 l 81 846 l 79 889 z "},"E":{"ha":692,"x_min":0,"x_max":640,"o":"m 3 140 q 11 75 3 100 q 44 28 19 49 q 126 -1 79 -1 l 597 -1 q 627 8 614 -1 q 640 33 640 18 q 627 60 640 50 q 596 70 614 70 l 347 70 q 323 75 331 70 q 293 100 315 81 q 254 176 254 136 l 251 447 q 268 507 251 493 q 327 518 285 518 l 504 518 q 535 531 522 518 q 549 561 549 543 q 496 592 547 592 l 307 592 q 265 603 279 592 q 251 654 251 615 l 250 972 q 258 1028 250 1018 q 313 1044 272 1044 l 502 1044 q 528 1055 516 1044 q 539 1081 539 1066 q 525 1104 539 1095 q 494 1113 512 1113 l 124 1113 q 31 1076 67 1113 q 5 1027 11 1055 q 0 953 0 1000 l 1 242 l 3 140 z "},"F":{"ha":608,"x_min":3,"x_max":551,"o":"m 250 119 l 250 446 q 270 500 250 486 q 314 508 282 508 l 458 508 q 495 518 479 508 q 511 546 511 528 q 496 574 511 564 q 461 585 482 585 l 306 585 q 267 593 279 585 q 250 653 250 607 l 251 932 q 279 1001 251 974 q 342 1029 306 1027 l 492 1038 q 534 1044 519 1039 q 551 1065 550 1049 q 535 1095 551 1084 q 496 1105 518 1105 l 125 1105 q 32 1075 66 1105 q 3 996 3 1049 q 3 969 3 988 q 4 940 4 950 l 4 229 l 4 139 q 41 36 4 78 q 138 -7 78 -7 q 218 33 187 -3 q 250 119 250 68 z "},"G":{"ha":661,"x_min":-5,"x_max":583,"o":"m -3 156 q 38 57 -3 95 q 144 1 80 18 q 279 -17 209 -16 q 424 4 354 -17 q 539 68 495 24 q 583 179 583 112 l 578 458 q 541 531 578 501 q 458 561 504 561 q 401 545 427 561 q 351 495 369 521 q 333 431 333 470 q 364 376 342 396 q 429 330 386 357 q 494 279 473 303 q 515 215 515 254 q 490 121 515 175 q 394 61 464 61 q 291 97 339 61 q 243 179 243 134 l 243 890 l 243 897 q 283 982 243 949 q 378 1015 322 1015 q 441 999 412 1015 q 490 956 471 983 q 508 895 508 928 l 511 686 q 523 651 511 666 q 553 636 535 636 q 582 689 582 638 l 582 895 q 543 1005 582 958 q 441 1077 504 1052 q 308 1107 379 1103 q 189 1093 245 1107 q 90 1052 134 1080 q 20 983 45 1024 q -5 890 -5 942 l -4 179 l -3 156 z "},"H":{"ha":674,"x_min":-4,"x_max":594,"o":"m -4 131 q 33 30 -4 72 q 131 -13 70 -13 q 212 32 181 -8 q 243 128 243 73 l 244 483 q 265 540 244 521 q 300 558 286 558 l 455 561 q 503 540 479 561 q 525 480 525 518 l 524 65 q 529 7 524 28 q 554 -15 534 -14 q 594 65 594 -15 l 594 777 l 593 1035 q 554 1108 593 1108 q 515 1035 515 1108 l 517 725 q 514 671 517 687 q 502 645 512 656 q 453 621 478 621 l 296 620 q 258 645 278 620 q 246 707 246 661 l 243 997 q 204 1078 243 1047 q 114 1108 164 1108 q 53 1089 81 1107 q 11 1042 26 1072 q -4 979 -4 1013 l -4 268 l -4 131 z "},"I":{"ha":335,"x_min":-10,"x_max":249,"o":"m -10 114 q 8 49 -10 78 q 55 4 25 20 q 122 -13 86 -13 q 212 28 175 -13 q 249 125 249 68 l 249 836 l 249 1013 q 231 1076 249 1047 q 184 1122 214 1104 q 122 1139 155 1139 q 55 1122 86 1139 q 7 1074 25 1104 q -10 1007 -10 1043 l -10 296 l -10 114 z "},"J":{"ha":655,"x_min":4,"x_max":583,"o":"m 335 944 l 336 233 l 337 189 q 292 116 337 145 q 192 87 246 87 q 99 129 124 87 q 64 223 64 181 q 84 288 64 268 q 168 357 105 308 q 240 439 230 405 q 243 460 243 453 q 186 549 243 509 q 115 569 155 569 q 37 546 71 569 q 4 485 4 522 l 4 203 q 93 52 4 105 q 299 -1 182 -1 q 435 19 369 -1 q 542 83 500 40 q 583 189 583 126 l 583 900 l 583 946 q 547 1061 583 1011 q 450 1111 510 1111 q 365 1059 394 1108 q 335 944 335 1010 z "},"K":{"ha":786,"x_min":-1,"x_max":718,"o":"m 482 807 q 484 826 482 817 q 489 845 486 836 q 497 867 493 854 l 564 1053 q 569 1083 569 1072 q 554 1113 569 1105 q 542 1115 546 1115 q 516 1104 528 1115 q 500 1079 504 1093 l 353 674 q 329 613 338 630 q 294 592 319 596 q 251 630 260 592 q 242 730 242 668 l 240 989 q 204 1076 240 1040 q 117 1113 168 1113 q 34 1079 68 1113 q -1 999 -1 1046 l -1 288 l 0 111 q 38 31 0 63 q 136 -1 77 -1 q 212 38 183 4 q 242 121 242 73 l 242 458 q 258 503 242 483 q 297 522 274 522 q 339 486 327 520 l 498 70 q 543 18 511 37 q 611 -1 575 -1 q 669 13 644 -1 q 718 107 718 39 q 701 194 718 147 l 498 738 q 482 807 482 789 z "},"L":{"ha":593,"x_min":0,"x_max":542,"o":"m 0 136 q 42 43 0 87 q 92 12 60 24 q 140 0 125 0 l 503 0 q 529 10 518 0 q 542 35 541 20 q 530 64 542 52 q 503 76 519 76 l 362 76 q 271 117 307 76 q 236 207 236 156 l 235 918 l 233 1018 q 217 1070 233 1046 q 173 1107 200 1094 q 117 1121 146 1121 q 59 1107 86 1121 q 16 1069 33 1094 q 0 1015 0 1045 l 0 304 l 0 136 z "},"M":{"ha":1007,"x_min":0,"x_max":949,"o":"m 1 54 q 15 15 1 32 q 50 -1 29 -1 q 81 15 69 0 q 93 52 93 31 l 93 490 q 121 546 93 539 q 176 502 163 546 l 350 50 q 396 0 368 0 q 420 14 412 1 q 435 53 427 27 l 588 507 q 660 579 608 579 q 706 496 706 571 l 711 129 q 748 38 711 76 q 836 0 784 0 q 916 38 884 2 q 949 122 949 74 l 942 833 l 939 975 q 912 1066 939 1027 q 839 1114 886 1105 q 815 1117 822 1117 q 741 1092 774 1117 q 693 1025 708 1067 l 543 579 q 515 506 527 528 q 474 485 504 485 q 429 507 445 485 q 399 574 414 530 l 227 1030 q 182 1093 213 1070 q 110 1115 151 1115 q 32 1082 64 1114 q 0 1004 0 1050 l 0 293 l 1 54 z "},"N":{"ha":625,"x_min":-3,"x_max":572,"o":"m -1 48 q 12 14 -1 29 q 48 -1 26 -1 q 81 53 81 4 l 81 478 q 94 519 81 502 q 131 539 108 537 q 192 472 168 539 l 319 122 q 464 5 361 5 q 543 49 513 12 q 572 138 572 86 l 572 849 l 572 1057 q 559 1099 572 1080 q 525 1118 547 1118 q 494 1054 494 1114 l 494 655 q 461 578 494 585 q 392 628 410 578 l 231 1046 q 125 1118 205 1116 q 36 1084 74 1118 q -3 1001 -3 1051 l -3 290 l -1 48 z "},"O":{"ha":653,"x_min":-5,"x_max":581,"o":"m -3 196 q 43 85 -3 131 q 158 16 88 39 q 297 -7 228 -7 q 339 -4 311 -7 q 456 25 402 2 q 544 89 510 48 q 578 185 578 129 l 581 895 q 537 1013 581 963 q 425 1088 494 1063 q 280 1114 356 1114 q 138 1082 204 1112 q 34 998 73 1052 q -5 873 -5 944 l -3 196 m 243 853 q 276 974 243 921 q 367 1030 308 1028 q 470 977 432 1030 q 508 853 508 923 l 508 227 q 478 124 508 170 q 400 74 447 78 q 285 116 332 74 q 237 219 237 159 l 243 853 z "},"P":{"ha":701,"x_min":3,"x_max":608,"o":"m 3 118 q 22 57 3 85 q 75 14 41 30 q 147 -1 108 -1 q 228 34 194 3 q 261 110 261 65 l 264 268 q 286 327 264 323 q 344 332 303 329 q 415 339 384 334 q 475 360 446 345 q 574 429 541 395 q 608 515 608 462 l 608 906 q 532 1046 608 994 q 350 1111 456 1099 q 307 1114 322 1114 q 161 1084 231 1114 q 46 999 90 1055 q 3 872 3 944 l 3 161 l 3 118 m 83 892 q 121 986 83 947 q 214 1028 158 1025 q 318 988 275 1028 q 361 892 361 948 l 364 526 q 328 447 364 479 q 242 410 293 415 q 131 441 175 410 q 86 524 86 473 l 83 892 z "},"Q":{"ha":651,"x_min":-3,"x_max":583,"o":"m 253 0 q 304 -4 271 -4 q 348 -3 318 -4 q 394 -1 378 -1 q 449 -5 429 -1 q 475 -17 457 -6 q 503 -28 493 -28 q 515 -24 509 -28 q 525 -7 525 -18 q 518 20 525 0 q 511 57 511 40 q 533 87 516 72 q 557 115 551 103 q 581 185 581 160 l 583 895 q 558 988 583 947 q 489 1057 533 1029 q 392 1100 446 1086 q 283 1114 338 1114 q 141 1082 207 1112 q 36 998 76 1052 q -3 873 -3 944 l 0 196 q 35 99 0 137 q 126 38 71 60 q 253 0 181 16 m 246 853 q 278 974 246 921 q 370 1030 311 1028 q 473 977 435 1030 q 511 853 511 923 l 511 227 q 487 134 511 174 q 417 82 463 95 q 386 78 402 78 q 318 98 351 78 q 266 151 286 118 q 246 219 246 183 l 246 853 z "},"R":{"ha":682,"x_min":-7,"x_max":594,"o":"m -4 105 q 36 29 -4 58 q 138 0 77 0 q 210 37 181 7 q 239 111 239 68 l 237 433 q 237 450 237 439 q 236 467 236 461 q 251 507 236 493 q 304 522 268 522 l 393 517 q 460 494 426 515 q 514 406 514 458 l 514 43 q 528 13 514 25 q 560 1 542 1 q 585 15 575 3 q 594 43 594 27 l 593 389 q 549 511 593 455 q 533 524 546 515 q 518 542 520 532 q 537 577 518 558 q 558 604 555 596 q 582 701 582 657 l 585 907 q 550 1011 585 967 q 460 1082 516 1056 q 337 1118 404 1108 q 290 1121 322 1121 q 147 1092 215 1121 q 36 1008 78 1062 q -7 885 -7 954 l -5 174 l -4 105 m 237 890 q 271 988 237 947 q 360 1035 306 1030 q 435 1021 401 1035 q 490 982 470 1008 q 510 924 510 957 l 510 686 q 482 620 510 652 q 413 586 453 586 l 299 583 q 249 594 261 583 q 237 639 237 607 l 237 890 z "},"S":{"ha":681,"x_min":3,"x_max":576,"o":"m 485 128 q 358 78 442 78 q 328 79 339 78 q 267 116 279 83 q 252 222 255 149 q 230 344 249 296 q 150 415 211 391 q 122 421 137 421 q 42 380 78 421 q 5 292 5 340 l 5 180 q 88 40 5 90 q 280 -10 171 -10 q 325 -7 297 -10 q 502 50 429 4 q 575 180 575 96 l 576 408 q 546 502 576 459 q 467 577 515 545 q 351 644 420 609 q 228 706 282 679 q 96 789 141 750 q 52 873 52 827 q 142 1017 52 937 q 196 1036 165 1036 q 273 1007 236 1036 q 327 930 310 978 q 341 847 336 903 q 351 765 346 791 q 379 718 356 739 q 450 696 401 697 q 532 725 497 696 q 568 800 568 755 l 564 922 q 522 1027 562 984 q 420 1091 483 1070 q 290 1113 357 1113 q 154 1085 218 1113 q 49 1007 89 1058 q 7 889 8 956 l 3 704 q 71 556 3 618 q 276 423 140 494 q 469 312 412 352 q 526 217 526 273 q 485 128 526 175 z "},"T":{"ha":772,"x_min":0,"x_max":726,"o":"m 244 113 q 281 29 244 64 q 368 -5 318 -5 q 448 31 416 -4 q 480 115 480 67 l 476 826 l 475 958 q 493 1024 475 1006 q 553 1039 511 1039 l 693 1040 q 716 1049 707 1040 q 726 1072 726 1059 q 714 1099 726 1087 q 686 1111 701 1111 l 36 1108 q 11 1100 22 1108 q 0 1079 1 1093 q 8 1052 0 1063 q 31 1040 17 1040 l 168 1039 q 229 1019 212 1039 q 243 953 243 1000 l 243 242 l 244 113 z "},"U":{"ha":632,"x_min":-4,"x_max":565,"o":"m -1 204 q 44 86 -1 136 q 160 9 89 36 q 308 -17 232 -17 q 396 -7 357 -17 q 519 67 472 11 q 565 199 565 122 l 565 910 l 565 1053 q 557 1092 565 1075 q 532 1108 549 1108 q 502 1053 502 1108 l 502 342 l 502 213 q 474 118 502 159 q 399 65 447 77 q 372 62 390 62 q 302 82 335 62 q 249 136 270 102 q 229 207 229 169 l 225 918 l 223 992 q 190 1069 223 1037 q 110 1100 156 1100 q 30 1069 64 1100 q -4 992 -4 1037 l -3 280 l -1 204 z "},"V":{"ha":785,"x_min":-5,"x_max":729,"o":"m 322 71 q 335 34 328 53 q 351 4 341 15 q 378 -7 361 -7 q 404 6 396 -7 q 420 50 413 19 q 428 82 427 80 l 668 793 l 724 950 q 729 986 729 965 q 699 1070 729 1032 q 622 1111 668 1108 q 562 1092 589 1111 q 519 1041 535 1073 q 504 976 504 1009 q 514 930 504 950 l 578 789 q 586 747 586 767 q 564 679 586 711 q 506 632 541 647 q 443 620 477 620 q 358 668 378 620 l 211 1039 q 169 1086 198 1068 q 105 1105 140 1104 q 56 1095 82 1105 q -5 986 -5 1067 q 5 922 -5 956 l 270 211 l 322 71 z "},"W":{"ha":1192,"x_min":-1,"x_max":1139,"o":"m 322 52 q 370 0 339 0 q 396 14 387 0 q 414 54 406 28 l 508 319 q 564 361 523 361 q 620 327 606 361 l 725 62 q 736 27 732 41 q 750 3 741 13 q 773 -7 758 -7 q 798 4 789 -7 q 812 41 806 15 q 820 70 819 66 l 1065 781 l 1135 981 q 1139 1008 1139 994 q 1123 1062 1139 1036 q 1080 1104 1107 1088 q 1025 1119 1054 1119 q 944 1085 980 1119 q 908 1007 908 1050 q 912 981 908 993 l 982 779 q 987 746 987 764 q 960 673 987 707 q 892 625 933 640 q 825 612 859 612 q 732 667 751 612 l 589 1044 q 547 1096 577 1078 q 480 1115 517 1115 q 432 1105 453 1115 q 381 1062 399 1091 q 362 997 362 1032 q 370 957 362 977 l 503 576 q 512 522 512 547 q 480 472 512 478 q 411 521 428 472 l 227 1026 q 181 1083 214 1061 q 110 1104 148 1104 q 57 1092 82 1104 q -1 989 -1 1057 q 5 944 -1 963 l 257 233 l 322 52 z "},"X":{"ha":732,"x_min":13,"x_max":653,"o":"m 174 604 q 185 564 184 576 q 186 548 185 558 q 188 533 188 538 q 185 515 188 522 l 21 60 q 13 22 13 37 q 29 -7 13 0 q 40 -10 37 -10 q 66 3 54 -10 q 85 32 79 16 l 201 362 q 257 404 215 404 q 307 360 290 402 l 437 43 q 473 3 448 17 q 529 -11 497 -11 q 590 4 559 -11 q 653 107 653 37 q 646 149 653 131 l 465 626 q 457 676 457 654 q 468 744 457 713 l 590 1061 q 593 1079 593 1073 q 585 1109 593 1097 q 563 1122 577 1122 q 524 1083 538 1122 l 457 906 q 448 878 455 901 q 434 843 441 856 q 417 822 428 830 q 390 814 406 814 q 323 878 345 814 l 257 1067 q 222 1108 247 1094 q 164 1122 196 1122 q 96 1105 127 1122 q 50 1062 67 1090 q 33 1004 33 1035 q 40 967 33 987 l 174 604 z "},"Y":{"ha":672,"x_min":4,"x_max":618,"o":"m 171 532 q 178 513 173 524 q 185 493 183 501 q 193 437 193 452 l 190 93 q 227 17 190 47 q 313 -13 264 -13 q 391 17 358 -12 q 424 87 424 45 l 426 485 l 426 514 q 436 548 427 528 q 446 571 445 568 l 618 1067 q 596 1117 618 1109 q 546 1072 557 1117 l 435 755 q 393 710 423 717 q 352 729 367 710 q 323 783 338 748 l 204 1067 q 122 1114 183 1114 q 62 1100 88 1114 q 20 1059 35 1086 q 4 1001 4 1032 q 13 956 4 978 l 171 532 z "},"Z":{"ha":655,"x_min":3,"x_max":622,"o":"m 36 1090 q 50 1070 36 1077 q 81 1062 63 1062 l 225 1062 q 280 1046 262 1062 q 294 1014 294 1032 q 280 957 294 1003 l 42 246 l 14 167 q 3 108 3 134 q 19 50 3 76 q 125 -5 53 -5 l 578 -5 q 622 25 620 -5 q 607 51 622 42 q 572 61 592 61 l 306 61 q 239 89 256 61 q 232 115 232 99 q 247 172 232 129 l 503 883 l 558 1035 q 569 1059 560 1040 q 578 1087 578 1077 q 572 1104 578 1097 q 511 1121 560 1121 l 75 1121 q 48 1112 60 1121 q 36 1090 36 1104 z "},"[":{"ha":568,"x_min":0,"x_max":539,"o":"m 0 -36 q 9 -110 0 -81 q 44 -165 18 -139 q 126 -200 79 -200 l 493 -200 q 523 -188 510 -200 q 536 -158 536 -177 q 523 -128 536 -139 q 492 -117 510 -117 l 347 -117 q 323 -110 331 -117 q 293 -81 315 -103 q 249 11 249 -31 l 250 236 l 250 947 q 249 964 250 953 q 249 979 249 975 q 258 1013 249 1000 q 313 1032 272 1032 l 502 1032 q 527 1045 516 1032 q 539 1075 539 1057 q 525 1102 539 1092 q 494 1113 512 1113 l 124 1113 q 31 1069 66 1113 q 5 1012 11 1044 q 0 924 0 980 l 0 674 l 0 -36 z "},"\\":{"ha":519,"x_min":1,"x_max":485,"o":"m 472 61 l 353 358 l 68 1069 q 53 1089 64 1081 q 29 1097 41 1097 q 15 1093 21 1097 q 1 1065 1 1085 q 5 1043 1 1054 l 126 743 l 408 32 q 429 1 416 14 q 457 -13 443 -13 q 471 -8 464 -13 q 485 17 485 0 q 472 61 485 29 z "},"]":{"ha":568,"x_min":-3,"x_max":536,"o":"m 536 -36 l 536 213 l 536 924 q 531 1011 536 980 q 506 1069 526 1043 q 413 1113 470 1113 l 42 1113 q 11 1102 24 1113 q -3 1075 -3 1092 q 9 1045 -3 1057 q 35 1032 20 1032 l 223 1032 q 278 1013 264 1032 q 288 979 288 1000 q 287 964 288 975 q 286 947 286 953 l 288 722 l 288 11 q 243 -81 288 -31 q 215 -109 225 -101 q 189 -117 205 -117 l 44 -117 q 13 -128 27 -117 q 0 -158 0 -140 q 13 -188 0 -176 q 43 -200 26 -200 l 410 -200 q 492 -165 457 -200 q 527 -110 518 -139 q 536 -36 536 -81 z "},"^":{"ha":856,"x_min":14,"x_max":789,"o":"m 393 667 q 428 706 406 688 q 474 733 449 723 q 521 743 499 743 q 558 729 545 743 q 617 621 617 667 q 608 584 617 600 q 582 541 600 567 q 554 495 563 515 q 545 451 545 476 q 549 419 545 436 q 592 356 559 380 q 668 332 625 332 q 752 373 715 333 q 789 458 789 413 q 778 500 789 479 l 447 1074 q 400 1113 425 1113 q 349 1072 370 1113 l 29 508 q 14 451 14 480 q 62 358 14 392 q 132 337 94 337 q 219 382 193 337 l 393 667 z "},"_":{"ha":995,"x_min":1,"x_max":946,"o":"m 31 -160 l 621 -160 l 920 -158 q 938 -149 931 -158 q 946 -125 946 -139 q 939 -100 946 -111 q 921 -89 932 -89 l 329 -89 l 29 -87 q 9 -101 17 -87 q 1 -131 1 -114 q 31 -160 6 -160 z "},"‘":{"ha":339,"x_min":1,"x_max":306,"o":"m 8 830 q 66 715 26 761 q 168 669 106 669 q 266 712 225 674 q 306 808 306 749 q 251 909 296 887 q 150 930 207 930 q 113 976 122 930 q 126 1012 113 998 q 164 1040 139 1026 q 200 1064 189 1055 q 211 1086 211 1073 q 208 1097 211 1088 q 174 1122 199 1122 q 107 1092 145 1122 q 47 1025 69 1061 q 1 886 1 948 q 8 830 1 862 z "},"a":{"ha":651,"x_min":5,"x_max":590,"o":"m 124 472 q 147 468 136 468 q 201 493 178 468 q 251 567 223 517 q 299 643 278 616 q 349 676 320 670 q 406 683 378 683 q 503 620 486 683 q 517 532 517 568 q 465 435 517 452 q 293 415 413 418 q 104 376 173 411 q 21 229 36 341 q 60 110 21 164 q 165 25 99 56 q 304 -7 231 -6 q 440 9 375 -7 q 548 64 506 26 q 590 162 590 102 l 590 560 q 380 769 590 699 q 308 781 350 781 q 171 750 241 781 q 55 677 101 719 q 5 604 8 634 q 124 472 5 509 m 318 121 q 217 75 267 75 q 165 90 188 75 q 85 207 85 146 q 165 327 85 275 q 275 356 210 356 q 353 299 353 356 q 367 257 367 296 q 354 181 367 220 q 318 121 341 141 z "},"b":{"ha":639,"x_min":-1,"x_max":583,"o":"m 485 743 q 424 768 452 763 q 349 773 395 773 l 260 773 q 246 782 254 773 q 237 818 237 792 l 232 1022 q 194 1092 231 1065 q 105 1119 157 1119 q 30 1093 62 1117 q -1 1030 -1 1069 l -1 319 l -1 211 q 76 60 -1 116 q 265 -7 154 3 q 301 -8 278 -8 q 437 14 372 -8 q 543 82 502 37 q 583 190 583 127 l 583 590 q 485 743 583 684 m 57 542 q 72 617 57 582 q 116 676 87 653 q 182 703 144 700 q 291 664 247 703 q 336 568 336 624 l 335 222 q 316 153 335 185 q 264 103 297 121 q 194 85 232 85 q 127 102 159 85 q 76 150 95 119 q 57 215 57 180 l 57 542 z "},"c":{"ha":655,"x_min":1,"x_max":586,"o":"m 396 270 q 358 219 376 253 q 323 151 341 185 q 283 96 306 117 q 227 75 261 75 q 114 113 162 75 q 65 211 65 152 l 62 542 q 85 619 62 584 q 145 674 107 654 q 227 696 182 694 q 295 665 271 696 q 348 576 320 634 q 396 503 377 518 q 471 474 432 474 q 527 490 502 474 q 565 525 552 506 q 586 588 586 559 q 541 678 586 636 q 427 745 495 720 q 299 773 359 771 q 151 745 219 773 q 42 665 83 717 q 1 545 1 613 l 1 225 q 46 99 1 152 q 164 19 92 46 q 315 -8 236 -8 q 473 23 401 -8 q 565 111 544 55 q 578 172 578 144 q 541 257 578 225 q 457 289 504 289 q 396 270 419 289 z "},"d":{"ha":653,"x_min":-1,"x_max":583,"o":"m -1 588 l -1 188 q 47 76 -1 120 q 168 12 95 32 q 317 -10 241 -7 q 447 17 385 -10 q 546 94 508 44 q 583 208 583 144 l 583 920 l 583 1028 q 552 1090 583 1067 q 476 1117 520 1114 q 388 1089 425 1117 q 350 1019 351 1062 l 345 815 q 336 779 345 789 q 322 771 328 771 l 233 771 q 159 765 188 771 q 97 740 130 760 q -1 588 -1 681 m 525 213 q 506 147 525 177 q 455 99 487 117 q 388 82 423 82 q 289 122 330 82 q 247 219 247 162 l 246 565 q 291 661 246 622 q 400 700 335 700 q 467 673 438 696 q 510 614 495 650 q 525 539 525 579 l 525 213 z "},"e":{"ha":620,"x_min":-5,"x_max":557,"o":"m 401 272 q 342 223 361 268 q 305 131 324 178 q 246 78 286 83 q 192 72 207 72 q 92 125 134 72 q 65 213 65 157 q 87 296 65 260 q 146 333 109 331 l 362 347 q 461 379 417 351 q 530 453 505 407 q 557 554 555 499 q 516 669 557 621 q 410 743 475 718 q 275 768 345 768 q 141 742 205 768 q 36 666 76 716 q -4 550 -4 616 l -5 215 q 40 92 -5 145 q 156 10 84 38 q 303 -18 228 -18 q 368 -13 340 -18 q 455 22 411 -4 q 527 85 499 48 q 555 158 555 122 q 540 207 555 183 q 512 247 522 235 q 485 266 503 259 q 437 274 468 274 q 401 272 415 274 m 231 437 q 227 485 227 437 q 243 602 227 546 q 300 674 259 657 q 368 689 338 689 q 446 661 410 689 q 497 554 497 622 q 469 463 497 505 q 408 420 451 435 q 318 406 366 406 q 256 414 281 406 q 231 437 231 422 z "},"f":{"ha":588,"x_min":-4,"x_max":569,"o":"m 436 844 q 513 858 493 853 q 549 887 532 863 q 569 961 567 910 q 535 1026 569 985 q 433 1101 501 1067 q 268 1140 364 1135 q 141 1105 205 1140 q 37 1021 78 1069 q -4 939 -4 972 l 1 228 l 3 122 q 41 37 3 72 q 131 1 79 1 q 213 31 177 1 q 249 105 249 61 l 240 631 q 250 681 240 665 q 279 703 266 701 l 328 711 q 360 730 354 714 q 348 759 360 748 q 322 769 337 769 l 256 769 q 68 887 68 769 q 86 972 68 925 q 203 1046 115 1046 q 243 1043 215 1046 q 298 1015 278 1040 q 340 940 317 989 q 381 868 362 891 q 436 844 401 844 z "},"g":{"ha":651,"x_min":3,"x_max":603,"o":"m 567 -87 l 569 -24 q 527 75 569 34 q 401 161 485 116 q 283 233 318 207 q 247 299 247 259 q 280 340 253 340 l 392 343 q 483 371 441 343 q 549 442 525 398 q 572 537 572 487 q 564 615 572 591 q 542 653 555 639 q 529 674 529 666 q 532 685 529 676 q 553 703 537 700 l 582 708 q 603 750 603 712 q 567 775 596 775 l 275 772 q 211 767 235 772 q 125 744 186 762 q 35 683 67 729 q 3 574 3 636 l 3 437 q 9 412 3 424 q 30 388 16 401 q 50 368 43 376 q 67 358 56 361 q 86 348 79 354 q 100 327 93 343 q 72 301 100 320 q 25 256 45 282 q 5 185 5 230 q 30 120 7 143 q 86 77 53 97 q 119 48 119 58 q 78 11 111 36 q 27 -42 45 -15 q 8 -113 8 -68 q 55 -201 14 -163 q 156 -259 96 -239 q 280 -279 217 -279 q 416 -258 351 -279 q 522 -194 480 -237 q 567 -87 564 -150 m 386 82 q 474 39 439 82 q 508 -60 508 -4 q 491 -127 508 -95 q 445 -177 474 -158 q 380 -196 415 -196 q 293 -153 328 -196 q 258 -48 258 -109 q 277 16 260 -14 q 323 64 294 46 q 386 82 351 82 m 372 682 q 437 664 407 682 q 485 616 467 646 q 503 551 503 586 q 467 455 503 496 q 378 413 431 415 q 308 430 340 413 q 256 477 276 447 q 236 543 236 506 q 276 641 236 601 q 372 682 315 682 z "},"h":{"ha":637,"x_min":-3,"x_max":575,"o":"m 111 458 q 67 560 67 490 q 100 653 67 614 q 200 692 134 692 q 293 650 256 689 q 331 555 331 610 l 336 95 q 374 26 336 52 q 469 0 412 0 q 545 33 514 4 q 575 105 575 63 l 575 572 q 486 735 575 666 q 416 771 450 762 q 325 782 381 780 l 270 785 q 242 796 253 785 q 231 829 231 807 l 231 1052 q 194 1110 231 1091 q 108 1129 158 1129 q 30 1101 63 1127 q -3 1035 -3 1076 l -3 323 l -3 83 q 35 18 -3 42 q 119 -5 72 -5 q 197 24 164 -4 q 231 95 231 52 l 231 339 q 213 388 231 369 q 158 430 196 407 q 111 458 119 453 z "},"i":{"ha":313,"x_min":-3,"x_max":233,"o":"m 104 1101 q 25 1064 53 1098 q -3 987 -3 1031 q 29 905 -3 940 q 121 871 61 871 q 200 908 172 875 q 228 985 228 941 q 196 1067 228 1033 q 104 1101 164 1101 m 3 118 q 19 60 3 87 q 65 17 36 33 q 125 1 94 1 q 202 36 171 3 q 233 115 233 70 l 232 664 q 217 718 232 693 q 176 756 201 742 q 121 769 151 769 q 40 737 74 769 q 5 657 5 705 l 3 118 z "},"j":{"ha":536,"x_min":5,"x_max":480,"o":"m 356 1093 q 275 1057 304 1091 q 246 978 246 1022 q 277 896 246 930 q 367 861 309 861 q 448 897 419 863 q 476 976 476 931 q 445 1059 476 1024 q 356 1093 414 1093 m 251 56 q 164 -54 251 -8 q 136 -60 153 -60 q 83 -50 118 -60 q 35 -40 48 -40 q 5 -62 11 -40 q 59 -125 5 -98 q 192 -151 112 -151 q 332 -129 262 -151 q 406 -92 373 -116 q 458 -34 438 -68 q 478 42 478 0 l 480 631 q 446 721 480 683 q 361 758 412 758 q 284 719 314 756 q 254 632 254 682 l 251 56 z "},"k":{"ha":621,"x_min":1,"x_max":575,"o":"m 1 70 q 43 0 1 2 q 74 24 68 0 q 81 89 81 48 l 78 327 q 113 375 78 364 q 131 378 118 378 q 175 354 160 378 l 375 38 q 454 -3 399 -3 q 536 29 502 -3 q 575 107 575 63 q 565 144 575 127 l 346 521 q 332 576 332 546 q 361 621 336 606 l 510 712 q 522 738 522 719 q 514 758 522 750 q 494 765 505 765 q 478 761 486 765 l 319 665 q 297 660 310 660 q 270 667 286 660 q 243 735 243 679 l 243 1004 q 211 1079 243 1048 q 133 1113 179 1109 q 41 1087 78 1113 q 3 1019 3 1062 l 3 308 l 1 70 z "},"l":{"ha":303,"x_min":0,"x_max":237,"o":"m 3 97 q 40 28 3 55 q 125 1 78 1 q 203 27 169 2 q 237 92 237 52 l 237 803 l 236 1022 q 198 1093 236 1066 q 111 1121 160 1121 q 33 1092 66 1120 q 0 1024 0 1065 l 1 313 l 3 97 z "},"m":{"ha":979,"x_min":-4,"x_max":920,"o":"m 676 317 l 676 108 q 714 34 676 63 q 801 4 752 4 q 884 33 849 4 q 920 105 920 61 l 918 475 q 897 636 918 572 q 816 738 875 701 q 647 778 756 775 q 587 773 606 778 q 524 754 569 768 q 457 740 479 740 q 390 755 433 743 q 321 773 347 768 q 257 779 296 779 q 110 736 164 766 q 32 665 56 707 q 2 574 8 624 q -4 443 -4 525 l -1 107 q 34 34 -1 63 q 115 4 69 5 q 204 32 165 4 q 242 107 242 61 l 243 325 q 222 381 243 360 q 156 427 200 402 q 91 473 113 452 q 67 528 68 493 q 106 653 67 615 q 219 690 145 690 q 309 632 278 685 q 340 511 340 579 l 340 105 q 379 30 340 59 q 468 1 418 1 q 548 35 515 3 q 582 113 582 67 l 579 519 q 612 645 579 598 q 730 692 644 692 q 823 646 794 692 q 851 546 851 600 q 844 506 851 516 q 763 426 820 465 q 691 373 706 387 q 676 317 676 359 z "},"n":{"ha":665,"x_min":0,"x_max":597,"o":"m 5 79 q 44 18 5 39 q 142 -3 83 -3 q 220 28 188 2 q 253 97 253 55 l 253 342 q 234 390 253 372 q 177 427 215 408 q 125 457 140 446 q 82 507 99 477 q 65 571 65 538 q 100 653 65 616 q 210 704 135 689 q 284 684 252 704 q 335 629 317 663 q 353 558 353 596 l 358 97 q 396 28 358 54 q 492 3 434 3 q 567 37 537 7 q 597 108 597 66 l 597 575 q 554 692 597 644 q 441 763 510 740 q 297 787 372 787 q 154 761 222 787 q 43 683 85 734 q 0 561 0 631 l 5 79 z "},"o":{"ha":672,"x_min":-5,"x_max":592,"o":"m -5 182 q 80 40 -5 89 q 280 -8 165 -8 q 327 -5 292 -8 q 514 49 437 4 q 592 180 592 94 l 592 586 q 505 731 592 681 q 301 781 418 781 q 270 779 280 781 q 136 753 199 775 q 34 690 73 732 q -5 586 -5 649 l -5 182 m 250 592 q 291 674 250 642 q 385 706 332 706 q 478 674 438 706 q 518 592 518 642 l 518 180 q 485 108 518 137 q 403 72 452 79 q 292 98 335 72 q 250 171 250 124 l 250 592 z "},"p":{"ha":639,"x_min":0,"x_max":589,"o":"m 589 194 l 589 564 q 540 676 589 632 q 418 741 492 721 q 270 764 345 762 q 140 739 202 764 q 39 667 78 714 q 0 557 0 620 l 1 -153 l 3 -161 q 36 -232 3 -203 q 115 -261 70 -260 q 197 -235 161 -261 q 233 -167 233 -209 l 233 -48 q 240 -19 233 -30 q 272 -7 249 -7 l 339 -7 q 429 6 391 -7 q 506 50 467 19 q 568 117 548 85 q 589 194 589 149 m 75 558 q 112 646 75 610 q 201 686 149 683 q 273 669 240 686 q 325 624 306 652 q 345 560 345 595 l 346 214 q 326 140 346 174 q 270 85 306 105 q 190 64 234 64 q 104 114 136 71 q 72 215 72 157 l 75 558 z "},"q":{"ha":672,"x_min":1,"x_max":590,"o":"m 85 53 q 161 9 123 22 q 251 -4 199 -4 l 318 -4 q 350 -17 341 -4 q 357 -46 357 -27 l 357 -164 q 393 -232 357 -206 q 475 -258 429 -258 q 554 -229 520 -257 q 588 -158 588 -201 l 589 551 l 590 560 q 551 670 590 623 q 450 742 512 717 q 321 767 389 767 q 172 744 245 764 q 50 679 99 724 q 1 567 1 635 l 1 197 q 22 120 1 152 q 85 53 42 89 m 518 218 q 487 117 518 160 q 400 67 455 74 q 289 111 333 67 q 244 217 244 156 l 246 563 q 265 626 246 597 q 318 672 284 655 q 389 689 351 689 q 452 670 423 687 q 498 623 481 652 q 515 561 515 595 l 518 218 z "},"r":{"ha":654,"x_min":-1,"x_max":582,"o":"m -1 117 q 16 57 -1 84 q 63 14 34 30 q 125 -1 92 -1 q 184 15 157 -1 q 228 56 212 30 q 244 114 244 83 l 244 583 q 260 637 244 612 q 301 678 275 663 q 360 693 328 693 q 453 669 421 688 q 497 621 485 650 q 519 540 510 591 q 498 480 519 504 q 432 425 476 456 q 367 370 389 394 q 345 311 345 346 q 391 227 354 260 q 485 193 428 193 q 554 227 526 200 q 582 290 582 253 l 582 575 q 539 686 582 641 q 430 755 497 732 q 290 778 362 778 q 151 753 218 778 q 41 679 83 728 q -1 563 -1 630 l -1 117 z "},"s":{"ha":643,"x_min":-8,"x_max":574,"o":"m 176 349 q 363 342 299 349 q 466 306 427 335 q 504 213 504 277 q 454 115 497 145 q 349 85 411 85 q 311 87 336 85 q 253 133 271 92 q 216 223 236 174 q 158 285 196 272 q 114 292 137 292 q 35 272 70 292 q -5 215 0 252 q -8 188 -8 193 q 36 84 -8 129 q 153 15 80 39 q 307 -8 225 -8 q 426 23 364 -4 q 528 92 487 50 q 568 176 568 133 l 567 246 q 487 377 565 337 q 289 417 410 417 q 204 413 246 417 q 100 443 150 413 q 50 569 50 474 q 75 625 52 599 q 135 668 98 652 q 217 685 173 685 q 295 628 269 676 q 347 532 320 580 q 431 474 374 484 q 557 546 508 474 q 574 594 574 571 q 528 678 574 637 q 415 744 482 719 q 289 772 348 770 q 181 759 233 772 q 87 719 128 745 q 21 653 45 692 q -3 565 -3 613 l -1 507 q 25 433 -1 470 q 91 372 50 396 q 176 349 132 349 z "},"t":{"ha":449,"x_min":-3,"x_max":397,"o":"m -3 736 q 6 711 -3 722 q 28 700 15 700 l 52 700 q 72 692 66 700 q 78 667 78 685 l 75 103 q 115 23 75 55 q 211 -8 155 -8 q 293 24 259 -6 q 328 97 328 53 l 327 659 q 322 674 327 664 q 317 690 317 684 q 337 703 322 703 l 371 703 q 390 713 383 703 q 397 736 397 723 q 389 759 397 749 q 368 768 381 768 l 339 768 q 318 781 325 768 q 313 808 313 789 l 313 933 q 301 962 313 950 q 274 974 290 974 q 248 962 258 974 q 237 935 237 951 l 237 861 q 205 797 237 824 q 142 771 175 771 l 28 768 q 6 759 15 768 q -3 736 -3 749 z "},"u":{"ha":696,"x_min":3,"x_max":600,"o":"m 600 679 q 561 763 600 730 q 469 796 522 796 q 384 763 420 795 q 347 683 347 731 l 347 455 q 365 407 347 426 q 420 365 382 388 q 467 336 458 342 q 512 219 512 303 q 481 117 512 159 q 386 75 450 75 q 314 100 346 77 q 265 160 282 123 q 247 239 247 197 l 247 689 q 212 765 247 734 q 131 796 178 795 q 42 764 80 796 q 3 683 3 732 l 3 222 q 46 102 3 153 q 161 25 90 51 q 307 -1 231 -1 q 450 28 382 -1 q 558 111 517 57 q 600 236 600 165 l 600 679 z "},"v":{"ha":836,"x_min":-5,"x_max":769,"o":"m 374 449 l 200 735 q 113 779 174 779 q 43 758 74 779 q -5 664 -5 725 q 10 607 -5 635 l 329 44 q 380 4 351 4 q 428 43 405 4 l 758 615 q 769 657 769 635 q 732 744 769 704 q 649 785 695 784 q 572 761 605 785 q 529 697 540 738 q 525 664 525 679 q 534 620 525 640 q 560 576 543 601 q 587 534 577 552 q 596 494 596 515 q 539 388 596 448 q 500 374 525 374 q 430 396 468 374 q 374 449 392 418 z "},"w":{"ha":1236,"x_min":3,"x_max":1175,"o":"m 1079 792 q 1054 794 1062 794 q 949 722 990 794 q 938 681 938 704 q 946 642 938 661 q 972 595 955 623 q 999 547 990 568 q 1008 503 1008 525 q 963 413 1008 458 q 895 382 930 382 q 838 400 866 382 q 793 446 811 417 l 617 733 q 529 781 588 781 q 472 767 502 781 q 426 724 443 752 q 408 665 408 695 q 419 621 408 639 l 545 415 q 555 375 555 395 q 528 327 555 338 q 511 323 522 323 q 450 365 476 323 l 228 735 q 132 786 197 786 q 61 767 94 786 q 18 721 34 750 q 3 660 3 691 q 19 597 3 627 l 361 35 q 403 4 378 4 q 442 36 426 4 l 555 232 q 606 254 567 254 q 645 232 635 251 l 751 43 q 796 4 771 4 q 844 47 822 4 l 1162 612 q 1175 664 1175 635 q 1163 721 1175 693 q 1129 768 1151 749 q 1079 792 1108 787 z "},"x":{"ha":660,"x_min":14,"x_max":617,"o":"m 180 417 q 189 372 189 403 q 175 319 189 345 l 18 46 q 14 28 14 38 q 25 1 14 10 q 44 -4 32 -4 q 76 13 68 -4 l 182 208 q 246 253 205 253 q 292 215 270 250 l 399 53 q 502 -1 433 -1 q 568 19 539 -1 q 617 114 617 55 q 602 170 617 146 l 445 424 q 431 458 431 451 q 451 510 431 473 l 581 730 q 586 753 586 741 q 574 779 586 770 q 555 783 565 783 q 526 769 534 783 l 432 608 q 390 589 421 589 q 336 625 360 589 l 264 733 q 172 779 235 779 q 104 760 134 779 q 63 715 78 743 q 48 659 48 687 q 64 603 48 630 l 180 417 z "},"y":{"ha":794,"x_min":3,"x_max":760,"o":"m 304 167 q 313 133 313 149 q 293 74 313 103 q 237 9 261 24 q 179 -5 212 -5 l 150 -5 q 72 -21 111 -5 q 3 -118 3 -49 q 13 -174 3 -143 q 55 -227 24 -208 q 121 -246 85 -246 q 203 -204 180 -246 l 615 506 l 755 744 q 760 760 760 751 q 749 785 760 776 q 728 792 740 792 q 704 779 711 792 l 517 467 q 461 424 491 424 q 413 458 432 424 l 249 736 q 153 787 219 787 q 93 771 120 787 q 52 729 67 755 q 38 672 38 702 q 52 618 38 642 l 304 167 z "},"z":{"ha":678,"x_min":0,"x_max":620,"o":"m 103 763 q 112 736 103 747 q 136 725 122 725 l 227 725 q 283 701 267 725 q 292 672 292 690 q 274 618 292 649 l 31 201 q 0 108 0 147 q 18 50 0 78 q 121 -1 54 -1 l 586 0 q 609 8 599 0 q 620 28 618 16 q 610 51 620 41 q 586 61 600 61 l 311 61 q 267 111 275 61 q 282 171 267 140 l 579 708 q 589 726 585 719 q 597 742 593 734 q 600 757 600 750 q 596 771 600 765 q 539 793 585 793 l 135 793 q 113 784 122 793 q 103 763 104 775 z "},"{":{"ha":568,"x_min":0,"x_max":539,"o":"m 0 -36 q 9 -110 0 -81 q 44 -165 18 -139 q 126 -200 79 -200 l 493 -200 q 523 -188 510 -200 q 536 -158 536 -177 q 523 -128 536 -139 q 492 -117 510 -117 l 347 -117 q 323 -110 331 -117 q 293 -81 315 -103 q 249 11 249 -31 l 250 236 l 250 947 q 249 964 250 953 q 249 979 249 975 q 258 1013 249 1000 q 313 1032 272 1032 l 502 1032 q 527 1045 516 1032 q 539 1075 539 1057 q 525 1102 539 1092 q 494 1113 512 1113 l 124 1113 q 31 1069 66 1113 q 5 1012 11 1044 q 0 924 0 980 l 0 674 l 0 -36 z "},"|":{"ha":75,"x_min":0,"x_max":72,"o":"m 72 38 l 72 732 l 71 1081 q 61 1103 71 1094 q 38 1113 51 1113 q 12 1104 23 1113 q 1 1082 1 1095 l 1 388 l 0 36 q 12 13 0 22 q 43 4 24 4 q 64 16 55 6 q 72 38 72 26 z "},"}":{"ha":568,"x_min":-3,"x_max":536,"o":"m 536 -36 l 536 213 l 536 924 q 531 1011 536 980 q 506 1069 526 1043 q 413 1113 470 1113 l 42 1113 q 11 1102 24 1113 q -3 1075 -3 1092 q 9 1045 -3 1057 q 35 1032 20 1032 l 223 1032 q 278 1013 264 1032 q 288 979 288 1000 q 287 964 288 975 q 286 947 286 953 l 288 722 l 288 11 q 243 -81 288 -31 q 215 -109 225 -101 q 189 -117 205 -117 l 44 -117 q 13 -128 27 -117 q 0 -158 0 -140 q 13 -188 0 -176 q 43 -200 26 -200 l 410 -200 q 492 -165 457 -200 q 527 -110 518 -139 q 536 -36 536 -81 z "},"~":{"ha":803,"x_min":24,"x_max":742,"o":"m 732 403 q 593 478 676 478 q 516 468 554 478 q 379 429 477 458 q 265 411 316 411 q 96 497 161 411 q 65 514 83 514 q 36 502 48 514 q 24 474 24 490 q 32 450 24 463 q 275 332 122 332 q 403 353 337 332 q 490 379 452 367 q 553 396 529 391 q 594 401 576 401 q 669 357 635 401 q 700 340 681 340 q 729 352 716 340 q 742 379 742 364 q 732 403 742 391 z "},"“":{"ha":722,"x_min":14,"x_max":679,"o":"m 542 665 q 639 707 598 670 q 679 804 679 745 q 625 905 669 883 q 524 926 580 926 q 486 972 495 926 q 499 1010 486 1000 q 548 1043 512 1020 q 585 1082 585 1065 q 582 1093 585 1084 q 547 1118 572 1118 q 481 1087 519 1118 q 421 1021 443 1057 q 375 882 375 944 q 382 826 375 859 q 439 711 400 756 q 542 665 479 665 m 180 672 q 278 714 238 677 q 318 811 318 752 q 264 911 308 889 q 162 933 219 933 q 125 979 134 933 q 138 1015 125 1001 q 176 1043 151 1029 q 212 1067 201 1058 q 223 1089 223 1076 q 221 1100 223 1092 q 186 1125 211 1125 q 119 1094 157 1125 q 60 1028 81 1064 q 14 889 14 952 q 21 833 14 866 q 78 718 39 764 q 180 672 118 672 z "},"”":{"ha":764,"x_min":11,"x_max":676,"o":"m 149 1105 q 51 1064 91 1101 q 11 968 11 1027 q 66 868 21 890 q 167 846 110 846 q 204 800 195 846 q 191 764 204 778 q 152 735 178 750 q 116 712 126 720 q 105 690 105 704 q 108 678 105 686 q 143 653 118 653 q 209 683 172 653 q 270 751 247 714 q 315 890 315 827 q 308 946 315 915 q 251 1060 291 1015 q 149 1105 212 1105 m 510 1099 q 412 1057 452 1094 q 372 961 372 1020 q 427 861 382 882 q 528 839 471 839 q 565 793 556 839 q 552 757 565 771 q 513 728 539 743 q 477 705 487 713 q 467 683 467 697 q 469 671 467 680 q 504 646 479 646 q 570 676 533 646 q 631 744 608 707 q 676 883 676 821 q 669 939 676 908 q 613 1053 652 1008 q 510 1099 573 1099 z "},"–":{"ha":763,"x_min":5,"x_max":725,"o":"m 52 497 l 683 498 q 713 509 701 498 q 725 535 725 520 q 710 556 723 548 q 679 565 697 565 l 50 569 q 18 557 31 569 q 5 526 5 545 q 52 497 13 497 z "},"•":{"ha":329,"x_min":0,"x_max":314,"o":"m 157 604 q 46 558 92 604 q 0 447 0 512 q 21 368 0 405 q 78 310 42 331 q 157 289 115 289 q 235 310 199 289 q 293 368 272 331 q 314 447 314 405 q 268 558 314 512 q 157 604 222 604 z "},"™":{"ha":622,"x_min":0,"x_max":593,"o":"m 5 1113 l 0 1052 l 10 1052 q 28 1085 15 1076 q 68 1095 40 1095 l 92 1095 l 92 917 q 87 885 92 892 q 61 877 82 879 l 61 867 l 175 867 l 175 877 q 150 885 155 878 q 144 917 144 892 l 144 1095 l 167 1095 q 208 1085 195 1095 q 225 1052 221 1075 l 235 1052 l 229 1113 l 5 1113 m 343 1113 l 256 1113 l 256 1101 q 285 1094 279 1101 q 290 1060 290 1087 l 290 917 q 284 884 290 891 q 256 877 279 877 l 256 867 l 350 867 l 350 877 l 339 877 q 315 884 321 877 q 310 917 310 892 l 310 1064 l 311 1064 l 404 867 l 414 867 l 506 1067 l 507 1067 l 507 917 q 501 885 507 892 q 471 877 494 878 l 471 867 l 593 867 l 593 877 q 564 885 570 879 q 558 917 558 891 l 558 1060 q 564 1093 558 1086 q 593 1101 570 1100 l 593 1113 l 507 1113 l 426 938 l 343 1113 z "},"¢":{"ha":614,"x_min":-4,"x_max":569,"o":"m 82 315 q 135 292 102 298 q 196 280 168 286 q 243 254 225 274 q 255 226 250 247 q 266 196 261 206 q 285 185 271 186 q 304 196 297 185 q 316 229 310 207 q 325 259 321 251 q 337 268 328 267 q 436 282 398 275 q 509 314 474 290 q 560 385 545 338 q 568 439 568 414 q 533 524 568 493 q 453 555 498 555 q 388 535 414 555 q 336 456 365 516 q 283 367 307 396 q 215 337 260 337 q 138 359 175 339 q 81 411 102 379 q 60 485 60 444 l 57 817 q 103 910 57 872 q 218 947 149 947 q 281 922 258 940 q 312 888 304 904 q 337 833 320 872 q 368 775 353 793 q 446 738 400 738 q 519 758 484 738 q 560 800 554 779 q 569 860 569 833 q 549 925 569 901 q 479 983 528 949 q 427 1003 458 998 q 368 1014 396 1009 q 321 1036 340 1020 q 308 1063 311 1044 q 302 1095 305 1083 q 285 1108 299 1107 q 268 1100 273 1108 q 259 1073 263 1092 q 253 1045 256 1054 q 240 1030 250 1036 q 200 1016 224 1020 q 152 1007 176 1012 q 110 992 127 1003 q -1 820 -1 922 l -4 498 q 16 397 -4 440 q 82 315 37 354 z "},"©":{"ha":1195,"x_min":0,"x_max":1139,"o":"m 571 -11 q 815 35 707 -11 q 994 162 922 81 q 1103 343 1066 242 q 1139 554 1139 445 q 1103 767 1139 664 q 995 951 1066 870 q 815 1080 923 1033 q 571 1128 707 1128 q 325 1080 433 1128 q 145 951 217 1033 q 36 767 72 869 q 0 554 0 664 q 36 344 0 445 q 145 162 72 243 q 326 35 218 81 q 571 -11 433 -11 m 571 1061 q 789 1019 693 1061 q 950 906 886 978 q 1046 744 1014 835 q 1079 554 1079 652 q 1047 368 1079 459 q 949 206 1014 278 q 789 91 885 134 q 571 48 692 48 q 352 91 449 48 q 190 206 255 133 q 92 369 125 278 q 60 554 60 459 q 92 743 60 652 q 190 906 125 834 q 351 1019 255 978 q 571 1061 448 1061 m 757 758 l 757 704 l 787 704 l 806 835 l 793 842 q 674 871 775 847 q 582 881 618 881 q 500 871 538 881 q 373 821 434 859 q 274 717 313 784 q 235 558 235 650 q 237 512 235 543 q 348 305 255 379 q 589 227 441 231 q 692 240 640 227 q 775 268 745 253 l 799 280 l 811 322 l 806 328 l 782 315 q 624 272 705 272 q 610 273 618 272 q 596 274 601 274 q 474 309 531 277 q 379 396 417 341 q 333 518 342 451 q 332 564 332 533 q 377 741 332 668 q 524 835 423 813 q 576 840 548 840 q 623 838 597 840 q 649 835 649 835 q 725 805 687 825 q 764 769 764 786 l 757 758 z "},"—":{"ha":1244,"x_min":3,"x_max":1138,"o":"m 38 496 l 749 496 l 1105 497 q 1128 507 1119 497 q 1138 531 1138 517 q 1129 556 1138 545 q 1107 567 1120 567 l 396 567 l 36 568 q 12 556 22 568 q 3 525 3 544 q 15 504 5 512 q 38 496 24 496 z "},"®":{"ha":278,"x_min":0,"x_max":265,"o":"m 133 847 q 230 886 195 847 q 265 979 265 925 q 230 1073 265 1033 q 133 1113 195 1113 q 35 1073 71 1113 q 0 979 0 1033 q 35 886 0 925 q 133 847 70 847 m 133 1097 q 220 1063 189 1097 q 251 979 251 1028 q 220 896 251 931 q 133 861 189 861 q 46 897 77 861 q 14 979 14 932 q 46 1062 14 1027 q 133 1097 77 1097 m 118 982 l 176 907 l 178 907 q 190 908 183 908 q 203 907 199 908 l 204 907 l 204 912 q 197 915 200 912 q 193 920 193 920 l 146 981 l 147 981 q 156 984 148 981 q 168 989 164 986 q 188 1021 188 1004 q 185 1033 188 1025 q 144 1054 178 1054 l 142 1053 l 103 1053 q 87 1054 97 1053 q 76 1054 77 1054 l 72 1054 l 72 1047 l 75 1047 q 89 1044 87 1047 q 93 1035 93 1040 l 93 926 q 89 918 93 923 q 79 915 86 915 l 72 915 l 72 908 l 76 908 q 87 909 78 908 q 103 910 97 910 q 119 909 109 910 q 128 908 129 908 l 132 908 l 132 914 l 126 915 q 115 918 118 915 q 113 926 113 921 l 113 1043 l 115 1043 q 143 1044 119 1044 q 167 1018 164 1043 q 155 995 167 1004 q 128 986 142 986 l 119 986 l 118 982 z "},"·":{"ha":498,"x_min":0,"x_max":475,"o":"m 237 704 q 119 672 173 704 q 32 584 64 639 q 0 464 0 528 q 32 345 0 400 q 119 259 64 291 q 237 227 174 227 q 357 259 301 227 q 443 345 412 291 q 475 464 475 399 q 443 584 475 529 q 357 672 412 639 q 237 704 302 704 z "}," ":{"ha":339,"x_min":0,"x_max":0,"o":""}}}
